<svg width="1024" height="288" viewBox="0 0 1024 288" fill="none" xmlns="http://www.w3.org/2000/svg">
<g clip-path="url(#clip0_26_1229)">
<path d="M131.904 163.995L144.416 164.91C162.319 164.91 177.527 158.654 190.04 146.142C202.552 133.63 208.808 118.066 208.808 99.4502C208.808 75.0361 198.076 56.929 176.612 45.1289C164.812 38.6185 152.198 34.8547 138.77 33.8374C133.073 33.3288 127.784 33.0745 122.901 33.0745H112.525C110.389 33.0745 108.507 33.1253 106.879 33.2271V238H29.0593V22.0881C52.863 22.0881 72.14 22.0881 86.8901 22.0881C101.64 22.0881 111.253 22.139 115.729 22.2407C120.205 22.3424 124.172 22.495 127.631 22.6985C131.191 22.8002 134.498 22.9528 137.549 23.1562C142.025 23.5632 148.332 24.5295 156.47 26.0554C164.71 27.5813 172.848 30.4805 180.884 34.7529C188.921 39.0254 195.838 44.3151 201.636 50.6221C214.148 64.0498 220.405 80.0207 220.405 98.5347C220.405 116.845 214.606 133.02 203.01 147.058C191.108 161.401 175.239 170.658 155.402 174.829C164.863 204.125 176.917 221.622 191.565 227.319C196.041 229.048 200.517 229.913 204.993 229.913L217.048 227.014C220.811 227.014 222.693 228.946 222.693 232.812C222.693 238.203 216.386 240.899 203.772 240.899C194.617 240.899 186.225 238.356 178.595 233.27C166.694 226.149 156.572 212.314 148.23 191.766L143.805 180.932C143.093 179.203 142.432 178.135 141.822 177.728C141.313 177.321 140.347 177.117 138.923 177.117C137.6 177.117 136.43 177.219 135.413 177.423L131.751 177.575C127.682 177.575 124.885 176.812 123.359 175.286C121.934 173.76 121.222 172.184 121.222 170.556C121.222 166.182 124.783 163.995 131.904 163.995ZM286.017 274.011C292.223 272.078 296.546 269.586 298.987 266.534C302.446 262.465 306.617 255.141 311.5 244.561L315.009 236.474L231.849 75.0361H301.276L344.611 167.199L369.635 108.758C374.213 98.0769 377.214 89.9389 378.638 84.344C380.062 78.7491 381.436 75.3413 382.758 74.1206C384.182 72.8999 385.861 72.2896 387.793 72.2896C389.828 72.2896 391.405 72.8999 392.524 74.1206C393.643 75.3413 394.202 76.562 394.202 77.7827C394.202 79.0034 394.05 80.3258 393.744 81.75C393.541 83.0724 393.032 84.9035 392.219 87.2432C391.506 89.4811 390.438 92.3294 389.014 95.7881L325.69 242.578C318.163 260.278 310.94 272.739 304.023 279.962C298.123 286.37 292.121 289.575 286.017 289.575C280.016 289.575 277.015 287.438 277.015 283.166C277.015 278.995 280.016 275.944 286.017 274.011ZM474.311 240.899C438.605 240.899 420.752 223.453 420.752 188.562V75.0361H486.06V224.42C487.077 224.928 488.349 225.183 489.875 225.183H494.91C503.048 225.183 512.712 219.689 523.902 208.703C527.259 205.346 530.412 201.684 533.362 197.717V75.0361H598.975V238H533.362V214.501C516.781 232.1 497.097 240.899 474.311 240.899ZM777.961 224.877C783.454 224.877 786.2 226.912 786.2 230.981C786.2 232.812 785.031 234.44 782.691 235.864C780.351 237.288 776.384 238 770.789 238H628.73L719.062 86.175H673.133C666.419 86.175 661.282 86.4802 657.721 87.0906C652.94 87.9044 649.533 88.3113 647.498 88.3113C645.464 88.3113 643.734 87.7518 642.31 86.6328C640.988 85.4121 640.326 83.9371 640.326 82.2078C640.326 77.4267 645.362 75.0361 655.433 75.0361H787.574L703.04 226.861H753.241C760.667 226.861 765.957 226.556 769.111 225.946C772.874 225.233 775.824 224.877 777.961 224.877ZM873.786 240.899C838.08 240.899 820.228 223.453 820.228 188.562V75.0361H885.535V224.42C886.552 224.928 887.824 225.183 889.35 225.183H894.385C902.523 225.183 912.187 219.689 923.377 208.703C926.734 205.346 929.887 201.684 932.837 197.717V75.0361H998.45V238H932.837V214.501C916.256 232.1 896.572 240.899 873.786 240.899Z" fill="black"/>
</g>
<defs>
<clipPath id="clip0_26_1229">
<rect width="1024" height="288" fill="white"/>
</clipPath>
</defs>
</svg>
